<mxfile host="app.diagrams.net" modified="2024-05-07T13:21:12.795Z" agent="Mozilla/5.0 (Windows NT 10.0; Win64; x64) AppleWebKit/537.36 (KHTML, like Gecko) Chrome/124.0.0.0 Safari/537.36" etag="insbQ2-aZxPci6h7lbRe" version="24.3.1" type="google">
  <diagram name="Page-1" id="_Ht9gOuzyUZ0okVe30qT">
    <mxGraphModel grid="0" page="1" gridSize="10" guides="1" tooltips="1" connect="1" arrows="1" fold="1" pageScale="1" pageWidth="850" pageHeight="1100" math="0" shadow="0">
      <root>
        <mxCell id="0" />
        <mxCell id="1" parent="0" />
        <mxCell id="ymTzm4GxknkkzWSZJKZg-1" style="edgeStyle=orthogonalEdgeStyle;rounded=0;orthogonalLoop=1;jettySize=auto;html=1;exitX=0;exitY=0.5;exitDx=0;exitDy=0;entryX=1;entryY=0.5;entryDx=0;entryDy=0;strokeColor=#CC0000;" edge="1" parent="1" source="TeC2zb-W1rzmLHfq34ra-6" target="TeC2zb-W1rzmLHfq34ra-9">
          <mxGeometry relative="1" as="geometry" />
        </mxCell>
        <mxCell id="ymTzm4GxknkkzWSZJKZg-2" style="edgeStyle=orthogonalEdgeStyle;rounded=0;orthogonalLoop=1;jettySize=auto;html=1;exitX=0;exitY=0.75;exitDx=0;exitDy=0;entryX=0.75;entryY=0;entryDx=0;entryDy=0;strokeColor=#006600;" edge="1" parent="1" source="TeC2zb-W1rzmLHfq34ra-6" target="TeC2zb-W1rzmLHfq34ra-12">
          <mxGeometry relative="1" as="geometry" />
        </mxCell>
        <mxCell id="ymTzm4GxknkkzWSZJKZg-3" style="edgeStyle=orthogonalEdgeStyle;rounded=0;orthogonalLoop=1;jettySize=auto;html=1;exitX=0.25;exitY=1;exitDx=0;exitDy=0;entryX=0.5;entryY=0;entryDx=0;entryDy=0;strokeColor=#006600;" edge="1" parent="1" source="TeC2zb-W1rzmLHfq34ra-6" target="TeC2zb-W1rzmLHfq34ra-17">
          <mxGeometry relative="1" as="geometry" />
        </mxCell>
        <mxCell id="ymTzm4GxknkkzWSZJKZg-4" style="edgeStyle=orthogonalEdgeStyle;rounded=0;orthogonalLoop=1;jettySize=auto;html=1;exitX=0.75;exitY=1;exitDx=0;exitDy=0;entryX=0.75;entryY=0;entryDx=0;entryDy=0;strokeColor=#006600;" edge="1" parent="1" source="TeC2zb-W1rzmLHfq34ra-6" target="TeC2zb-W1rzmLHfq34ra-18">
          <mxGeometry relative="1" as="geometry" />
        </mxCell>
        <mxCell id="ymTzm4GxknkkzWSZJKZg-5" style="edgeStyle=orthogonalEdgeStyle;rounded=0;orthogonalLoop=1;jettySize=auto;html=1;exitX=1;exitY=0.75;exitDx=0;exitDy=0;entryX=0.75;entryY=0;entryDx=0;entryDy=0;strokeColor=#006600;" edge="1" parent="1" source="TeC2zb-W1rzmLHfq34ra-6" target="TeC2zb-W1rzmLHfq34ra-19">
          <mxGeometry relative="1" as="geometry" />
        </mxCell>
        <mxCell id="TeC2zb-W1rzmLHfq34ra-6" value="&lt;b&gt;&lt;font color=&quot;#5e4e4e&quot;&gt;ValidationManagerConfig&lt;/font&gt;&lt;/b&gt;&lt;font face=&quot;Lucida Console&quot;&gt;&lt;br&gt;&lt;/font&gt;" style="whiteSpace=wrap;html=1;rounded=1;comic=0;labelBackgroundColor=none;strokeWidth=1;fontFamily=Verdana;fontSize=12;align=center;fillColor=#e1d5e7;strokeColor=#9673a6;" vertex="1" parent="1">
          <mxGeometry x="510" y="107" width="200.25" height="63" as="geometry" />
        </mxCell>
        <mxCell id="TeC2zb-W1rzmLHfq34ra-9" value="&lt;b style=&quot;color: rgb(94, 78, 78);&quot;&gt;ValidationServices&lt;/b&gt;&lt;br&gt;factories&lt;br&gt;services" style="whiteSpace=wrap;html=1;rounded=1;shadow=0;comic=0;labelBackgroundColor=none;strokeWidth=1;fontFamily=Verdana;fontSize=12;align=center;fillColor=#f8cecc;strokeColor=#b85450;" vertex="1" parent="1">
          <mxGeometry x="161.5" y="107" width="153" height="62" as="geometry" />
        </mxCell>
        <mxCell id="TeC2zb-W1rzmLHfq34ra-12" value="&lt;font face=&quot;Verdana&quot; color=&quot;#5e4e4e&quot;&gt;InputValueHostConfig with 2 validators&lt;/font&gt;" style="swimlane;whiteSpace=wrap;html=1;strokeColor=#97D077;fontColor=#006600;collapsible=0;opacity=70;swimlaneFillColor=#E6FFCC;" vertex="1" parent="1">
          <mxGeometry x="107" y="200" width="313" height="551" as="geometry" />
        </mxCell>
        <mxCell id="TeC2zb-W1rzmLHfq34ra-44" value="&lt;font face=&quot;Verdana&quot;&gt;ValidatorConfig&lt;/font&gt;" style="swimlane;horizontal=0;whiteSpace=wrap;html=1;rotation=90;strokeColor=#CCCCFF;fontColor=#5E4E4E;collapsible=0;container=0;noLabel=0;swimlaneFillColor=#DAE8FC;" vertex="1" parent="TeC2zb-W1rzmLHfq34ra-12">
          <mxGeometry x="56.82" y="302.62" width="194.12" height="288.46" as="geometry" />
        </mxCell>
        <mxCell id="TeC2zb-W1rzmLHfq34ra-45" value="&lt;p style=&quot;line-height: 140%;&quot;&gt;&lt;font face=&quot;Verdana&quot;&gt;conditionConfig: ... &lt;i&gt;below &lt;/i&gt;...&lt;br&gt;errorMessage: &quot;...the error message...&quot;&lt;br&gt;severity: ValidationSeverity.Error&lt;/font&gt;&lt;/p&gt;" style="whiteSpace=wrap;html=1;rounded=0;shadow=0;comic=0;labelBackgroundColor=none;strokeWidth=1;fontFamily=Verdana;fontSize=12;align=left;rotation=0;fillColor=none;strokeColor=none;container=0;spacing=4;expand=1;" vertex="1" parent="TeC2zb-W1rzmLHfq34ra-44">
          <mxGeometry x="-30" y="78" width="251" height="48.5" as="geometry" />
        </mxCell>
        <mxCell id="W1VKmx6ErLQKGYP9Bs0h-2" value="&lt;font face=&quot;Verdana&quot;&gt;ValidatorConfig&lt;/font&gt;" style="swimlane;horizontal=0;whiteSpace=wrap;html=1;rotation=90;strokeColor=#CCCCFF;fontColor=#5E4E4E;collapsible=0;container=0;noLabel=0;swimlaneFillColor=#DAE8FC;" vertex="1" parent="TeC2zb-W1rzmLHfq34ra-12">
          <mxGeometry x="53.54" y="95.34" width="200.68" height="286" as="geometry" />
        </mxCell>
        <mxCell id="W1VKmx6ErLQKGYP9Bs0h-4" value="&lt;p style=&quot;line-height: 140%;&quot;&gt;&lt;font face=&quot;Verdana&quot;&gt;conditionConfig: ... &lt;i&gt;below &lt;/i&gt;...&lt;br&gt;errorMessage: &quot;...the error message...&quot;&lt;br&gt;severity: ValidationSeverity.Error&lt;/font&gt;&lt;/p&gt;" style="whiteSpace=wrap;html=1;rounded=0;shadow=0;comic=0;labelBackgroundColor=none;strokeWidth=1;fontFamily=Verdana;fontSize=12;align=left;rotation=0;fillColor=none;strokeColor=none;container=0;spacing=4;expand=1;" vertex="1" parent="W1VKmx6ErLQKGYP9Bs0h-2">
          <mxGeometry x="-31.93500000000003" y="76.86999999999999" width="260.93" height="48.5" as="geometry" />
        </mxCell>
        <mxCell id="W1VKmx6ErLQKGYP9Bs0h-5" value="&lt;font face=&quot;Verdana&quot;&gt;ConditionConfig&lt;/font&gt;" style="swimlane;horizontal=0;whiteSpace=wrap;html=1;rotation=90;strokeColor=#CCCCFF;collapsible=0;fontColor=#5E4E4E;container=0;swimlaneFillColor=#FAD7AC;swimlaneLine=1;shadow=0;" vertex="1" parent="W1VKmx6ErLQKGYP9Bs0h-2">
          <mxGeometry x="53.629999999999974" y="55.56999999999998" width="90" height="268" as="geometry" />
        </mxCell>
        <mxCell id="W1VKmx6ErLQKGYP9Bs0h-6" value="&lt;p style=&quot;line-height: 140%;&quot;&gt;conditionType: &quot;LessThan&quot;&lt;br&gt;valueHostName: &quot;StartDate&quot;&lt;br&gt;secondValueHostName: &quot;EndDate&quot;&lt;br&gt;&lt;/p&gt;" style="whiteSpace=wrap;html=1;rotation=0;fillColor=none;strokeColor=none;rounded=0;container=0;spacing=4;align=left;fontFamily=Verdana;" vertex="1" parent="W1VKmx6ErLQKGYP9Bs0h-5">
          <mxGeometry x="-78.5" y="112.48" width="232.8" height="62.5" as="geometry" />
        </mxCell>
        <mxCell id="TeC2zb-W1rzmLHfq34ra-15" value="&lt;p style=&quot;line-height: 150%;&quot;&gt;&lt;font face=&quot;Verdana&quot;&gt;valueHostType: &quot;Input&quot;&lt;br&gt;name: &quot;&lt;font style=&quot;&quot; color=&quot;#cc00cc&quot;&gt;StartDate&lt;/font&gt;&quot;&lt;br&gt;dataType: &quot;Date&quot;&lt;br&gt;label: &quot;Start date&quot;&lt;br&gt;validatorConfigs: [ ... &lt;i&gt;below &lt;/i&gt;... ]&lt;br&gt;&lt;/font&gt;&lt;/p&gt;" style="rounded=0;whiteSpace=wrap;html=1;shadow=0;comic=0;labelBackgroundColor=none;strokeWidth=1;fontFamily=Verdana;fontSize=12;align=left;fillColor=none;strokeColor=none;spacing=4;" vertex="1" parent="TeC2zb-W1rzmLHfq34ra-12">
          <mxGeometry x="7" y="26" width="309" height="90" as="geometry" />
        </mxCell>
        <mxCell id="TeC2zb-W1rzmLHfq34ra-17" value="&lt;font&gt;InputValueHostConfig&lt;/font&gt;" style="swimlane;whiteSpace=wrap;html=1;strokeColor=#97D077;collapsible=0;fontColor=#5E4E4E;fontFamily=Verdana;fillColor=default;swimlaneFillColor=#E6FFCC;" vertex="1" parent="1">
          <mxGeometry x="440" y="200" width="190" height="120" as="geometry" />
        </mxCell>
        <mxCell id="TeC2zb-W1rzmLHfq34ra-11" value="&lt;p style=&quot;line-height: 150%;&quot;&gt;&lt;span style=&quot;background-color: initial;&quot;&gt;valueHostType&lt;/span&gt;&lt;font face=&quot;Verdana&quot;&gt;&lt;font style=&quot;font-size: 12px;&quot;&gt;&lt;font style=&quot;border-color: var(--border-color);&quot;&gt;: &quot;Input&quot;&lt;br style=&quot;border-color: var(--border-color);&quot;&gt;name: &quot;&lt;font style=&quot;&quot; color=&quot;#cc00cc&quot;&gt;End&lt;font style=&quot;border-color: var(--border-color);&quot;&gt;Date&lt;/font&gt;&lt;/font&gt;&quot;&lt;br style=&quot;border-color: var(--border-color);&quot;&gt;dataType: &quot;Date&quot;&lt;br style=&quot;border-color: var(--border-color);&quot;&gt;&lt;/font&gt;label: &quot;End date&quot;&lt;br&gt;&lt;/font&gt;validatorConfigs: []&lt;/font&gt;&lt;/p&gt;" style="rounded=0;whiteSpace=wrap;html=1;shadow=0;comic=0;labelBackgroundColor=none;strokeWidth=1;fontFamily=Verdana;fontSize=12;align=left;fillColor=#E6FFCC;strokeColor=none;spacing=4;" vertex="1" parent="TeC2zb-W1rzmLHfq34ra-17">
          <mxGeometry x="4.5" y="25" width="166.5" height="94" as="geometry" />
        </mxCell>
        <mxCell id="TeC2zb-W1rzmLHfq34ra-18" value="&lt;font face=&quot;Verdana&quot;&gt;CalcValueHostConfig&lt;/font&gt;" style="swimlane;whiteSpace=wrap;html=1;startSize=23;strokeColor=#97D077;fontColor=#5E4E4E;collapsible=0;swimlaneFillColor=#E6FFCC;" vertex="1" parent="1">
          <mxGeometry x="518" y="343" width="190.25" height="93.02" as="geometry" />
        </mxCell>
        <mxCell id="TeC2zb-W1rzmLHfq34ra-10" value="&lt;p style=&quot;line-height: 140%;&quot;&gt;&lt;span style=&quot;background-color: initial;&quot;&gt;valueHostType&lt;/span&gt;&lt;font face=&quot;Verdana&quot;&gt;: &quot;Calc&quot;&lt;br&gt;name: &quot;&lt;font color=&quot;#cc00cc&quot;&gt;DiffInDays&lt;/font&gt;&quot;&lt;br&gt;calcFn: &lt;i&gt;function callback&lt;/i&gt;&lt;/font&gt;&lt;font face=&quot;Lucida Console&quot;&gt;&lt;br&gt;&lt;/font&gt;&lt;/p&gt;" style="rounded=0;html=1;shadow=0;comic=0;labelBackgroundColor=none;strokeWidth=1;fontFamily=Verdana;fontSize=12;align=left;fillColor=none;strokeColor=none;spacing=4;whiteSpace=wrap;verticalAlign=middle;" vertex="1" parent="TeC2zb-W1rzmLHfq34ra-18">
          <mxGeometry x="5" y="23.02" width="163" height="70" as="geometry" />
        </mxCell>
        <mxCell id="TeC2zb-W1rzmLHfq34ra-19" value="&lt;font face=&quot;Verdana&quot;&gt;StaticValueHostConfig&lt;/font&gt;" style="swimlane;whiteSpace=wrap;html=1;strokeColor=#97D077;swimlaneLine=1;fontColor=#5E4E4E;collapsible=0;swimlaneFillColor=#E6FFCC;" vertex="1" parent="1">
          <mxGeometry x="597" y="454" width="190.25" height="93" as="geometry">
            <mxRectangle x="587" y="30" width="150" height="30" as="alternateBounds" />
          </mxGeometry>
        </mxCell>
        <mxCell id="TeC2zb-W1rzmLHfq34ra-20" value="&lt;p style=&quot;line-height: 140%;&quot;&gt;&lt;span style=&quot;background-color: initial;&quot;&gt;valueHostType&lt;/span&gt;&lt;font face=&quot;Verdana&quot;&gt;: &quot;Static&quot;&lt;br&gt;name: &quot;&lt;font color=&quot;#cc00cc&quot;&gt;TimeZone&lt;/font&gt;&quot;&lt;br&gt;dataType: &quot;String&quot;&lt;/font&gt;&lt;/p&gt;" style="rounded=0;whiteSpace=wrap;html=1;shadow=0;comic=0;labelBackgroundColor=none;strokeWidth=1;fontFamily=Verdana;fontSize=12;align=left;fillColor=none;strokeColor=none;spacing=4;" vertex="1" parent="TeC2zb-W1rzmLHfq34ra-19">
          <mxGeometry x="4" y="23" width="178" height="70" as="geometry" />
        </mxCell>
        <mxCell id="TeC2zb-W1rzmLHfq34ra-46" value="&lt;font face=&quot;Verdana&quot;&gt;ConditionConfig&lt;/font&gt;" style="swimlane;horizontal=0;whiteSpace=wrap;html=1;rotation=90;strokeColor=#CCCCFF;collapsible=0;fontColor=#5E4E4E;container=0;swimlaneFillColor=#FAD7AC;" vertex="1" parent="1">
          <mxGeometry x="216.5" y="560" width="86" height="264.69" as="geometry" />
        </mxCell>
        <mxCell id="TeC2zb-W1rzmLHfq34ra-48" value="&lt;p style=&quot;line-height: 140%;&quot;&gt;&lt;span style=&quot;background-color: initial;&quot;&gt;conditionType&lt;/span&gt;: &quot;LessThanOrEqual&quot;&lt;br&gt;valueHostName: &quot;DiffInDays&quot;&lt;br&gt;secondValue: 10&lt;/p&gt;" style="whiteSpace=wrap;html=1;rotation=0;fillColor=none;strokeColor=none;rounded=0;container=0;spacing=4;align=left;fontFamily=Verdana;" vertex="1" parent="TeC2zb-W1rzmLHfq34ra-46">
          <mxGeometry x="-78.02" y="113.43" width="240.8" height="62.5" as="geometry" />
        </mxCell>
      </root>
    </mxGraphModel>
  </diagram>
</mxfile>
